# xmcd
#
# Track frame offsets:
#	150
#	20595
#	31880
#	53138
#	73888
#	86901
#	104989
#	120902
#	139170
#	158631
#	178359
#	197007
#
# Disc length: 2911 seconds
#
# Revision: 1
# Processed by: cddbd v1.4PL0 Copyright (c) Steve Scherf et al.
# Submitted via: CDmax 1.8
#
DISCID=ae0b5d0c
DTITLE=Garth Brooks - Scarecrow
DYEAR=2001
DGENRE=Country
TTITLE0=Why Ain't I Running
TTITLE1=Beer Run
TTITLE2=Wrapped Up In You
TTITLE3=The Storm
TTITLE4=Thicker Than Blood
TTITLE5=Big Money
TTITLE6=Squeeze Me In
TTITLE7=Mr. Midnight
TTITLE8=Pushing Up Daisies
TTITLE9=Rodeo Or Mexico
TTITLE10=Don't Cross The River
TTITLE11=When You Come Back To Me Again
EXTD=YEAR: 2001 ID3G: 2
EXTT0=
EXTT1=
EXTT2=
EXTT3=
EXTT4=
EXTT5=
EXTT6=
EXTT7=
EXTT8=
EXTT9=
EXTT10=
EXTT11=
PLAYORDER=
